<svg width="40" height="40" viewBox="0 0 40 40" fill="none" xmlns="http://www.w3.org/2000/svg">
<circle cx="20" cy="20" r="20" fill="#D9D9D9"/>
<path d="M29.1071 32.143H22.851C23.9019 31.2046 24.893 30.2013 25.8184 29.1389C29.2905 25.1457 31.1309 20.9362 31.1309 16.9644C31.1309 14.0123 29.9582 11.1811 27.8707 9.09368C25.7833 7.00622 22.9521 5.8335 20 5.8335C17.0479 5.8335 14.2167 7.00622 12.1292 9.09368C10.0417 11.1811 8.86902 14.0123 8.86902 16.9644C8.86902 20.9362 10.7044 25.1457 14.1815 29.1389C15.1069 30.2013 16.098 31.2046 17.1489 32.143H10.8928C10.6245 32.143 10.3671 32.2496 10.1773 32.4394C9.98753 32.6292 9.88092 32.8865 9.88092 33.1549C9.88092 33.4233 9.98753 33.6807 10.1773 33.8704C10.3671 34.0602 10.6245 34.1668 10.8928 34.1668H29.1071C29.3755 34.1668 29.6329 34.0602 29.8226 33.8704C30.0124 33.6807 30.119 33.4233 30.119 33.1549C30.119 32.8865 30.0124 32.6292 29.8226 32.4394C29.6329 32.2496 29.3755 32.143 29.1071 32.143ZM10.8928 16.9644C10.8928 14.5491 11.8523 12.2326 13.5602 10.5247C15.2682 8.81681 17.5846 7.85731 20 7.85731C22.4153 7.85731 24.7318 8.81681 26.4397 10.5247C28.1476 12.2326 29.1071 14.5491 29.1071 16.9644C29.1071 24.2034 22.0908 30.2457 20 31.89C17.9091 30.2457 10.8928 24.2034 10.8928 16.9644ZM25.0595 16.9644C25.0595 15.9638 24.7628 14.9856 24.2068 14.1535C23.6509 13.3215 22.8607 12.673 21.9362 12.2901C21.0117 11.9071 19.9944 11.8069 19.0129 12.0021C18.0315 12.1974 17.1299 12.6792 16.4223 13.3868C15.7148 14.0944 15.2329 14.9959 15.0377 15.9774C14.8424 16.9588 14.9426 17.9761 15.3256 18.9006C15.7085 19.8252 16.357 20.6153 17.189 21.1713C18.0211 21.7272 18.9993 22.024 20 22.024C21.3418 22.024 22.6287 21.4909 23.5776 20.5421C24.5264 19.5932 25.0595 18.3063 25.0595 16.9644ZM16.9643 16.9644C16.9643 16.364 17.1423 15.7771 17.4759 15.2779C17.8094 14.7787 18.2835 14.3896 18.8383 14.1598C19.393 13.93 20.0033 13.8699 20.5922 13.9871C21.1811 14.1042 21.722 14.3933 22.1465 14.8179C22.5711 15.2424 22.8602 15.7833 22.9774 16.3722C23.0945 16.9611 23.0344 17.5715 22.8046 18.1262C22.5748 18.6809 22.1857 19.155 21.6865 19.4886C21.1873 19.8221 20.6004 20.0002 20 20.0002C19.1948 20.0002 18.4227 19.6803 17.8534 19.111C17.2841 18.5417 16.9643 17.7696 16.9643 16.9644Z" fill="#2B3320"/>
</svg>
