<svg width="90" height="90" viewBox="0 0 90 90" fill="none" xmlns="http://www.w3.org/2000/svg">
<circle cx="45" cy="45" r="44.5" fill="#2B3320" stroke="black"/>
<path d="M47.5 53.125C47.5 53.6195 47.3534 54.1028 47.0787 54.5139C46.804 54.925 46.4135 55.2455 45.9567 55.4347C45.4999 55.6239 44.9972 55.6734 44.5123 55.577C44.0273 55.4805 43.5819 55.2424 43.2322 54.8928C42.8826 54.5431 42.6445 54.0977 42.548 53.6127C42.4516 53.1278 42.5011 52.6251 42.6903 52.1683C42.8795 51.7115 43.2 51.321 43.6111 51.0463C44.0222 50.7716 44.5056 50.625 45 50.625C45.663 50.625 46.2989 50.8884 46.7678 51.3572C47.2366 51.8261 47.5 52.462 47.5 53.125ZM61.875 45C61.875 48.3376 60.8853 51.6002 59.0311 54.3752C57.1768 57.1503 54.5413 59.3132 51.4578 60.5905C48.3743 61.8677 44.9813 62.2019 41.7079 61.5508C38.4344 60.8996 35.4276 59.2924 33.0676 56.9324C30.7076 54.5724 29.1004 51.5656 28.4493 48.2921C27.7981 45.0187 28.1323 41.6257 29.4095 38.5422C30.6868 35.4587 32.8497 32.8232 35.6248 30.969C38.3998 29.1147 41.6624 28.125 45 28.125C49.474 28.13 53.7634 29.9095 56.927 33.0731C60.0906 36.2367 61.87 40.526 61.875 45ZM58.125 45C58.125 42.4041 57.3552 39.8665 55.913 37.7081C54.4709 35.5497 52.421 33.8675 50.0227 32.8741C47.6244 31.8807 44.9854 31.6208 42.4394 32.1272C39.8934 32.6336 37.5548 33.8837 35.7192 35.7192C33.8837 37.5548 32.6336 39.8934 32.1272 42.4394C31.6208 44.9854 31.8807 47.6244 32.8741 50.0227C33.8675 52.421 35.5498 54.4708 37.7081 55.913C39.8665 57.3552 42.4041 58.125 45 58.125C48.4798 58.1213 51.8161 56.7373 54.2767 54.2767C56.7373 51.8161 58.1213 48.4798 58.125 45ZM45 35C41.2094 35 38.125 37.8031 38.125 41.25V41.875C38.125 42.3723 38.3226 42.8492 38.6742 43.2008C39.0258 43.5525 39.5027 43.75 40 43.75C40.4973 43.75 40.9742 43.5525 41.3258 43.2008C41.6775 42.8492 41.875 42.3723 41.875 41.875V41.25C41.875 39.8719 43.2813 38.75 45 38.75C46.7188 38.75 48.125 39.8719 48.125 41.25C48.125 42.6281 46.7188 43.75 45 43.75C44.5027 43.75 44.0258 43.9475 43.6742 44.2992C43.3226 44.6508 43.125 45.1277 43.125 45.625V46.875C43.1239 47.3382 43.2943 47.7855 43.6034 48.1305C43.9125 48.4756 44.3383 48.694 44.7989 48.7437C45.2595 48.7934 45.7221 48.6708 46.0977 48.3996C46.4732 48.1284 46.7351 47.7278 46.8328 47.275C49.7359 46.5437 51.875 44.1203 51.875 41.25C51.875 37.8031 48.7906 35 45 35Z" fill="white"/>
</svg>
