<svg width="132" height="137" viewBox="0 0 132 137" fill="none" xmlns="http://www.w3.org/2000/svg">
<ellipse cx="65.705" cy="68.395" rx="65.705" ry="68.395" fill="#F1FFE0"/>
<path d="M88.4421 51.752V52.0506C88.4421 55.06 87.2936 57.9461 85.2494 60.074C83.2052 62.202 80.4326 63.3974 77.5416 63.3974H65.4936V88.4798H68.3622C69.4081 88.48 70.4295 88.1496 71.2911 87.5322C72.1526 86.9149 72.8137 86.0397 73.1869 85.0226C73.5601 84.0055 73.6277 82.8944 73.3809 81.8364C73.134 80.7784 72.5843 79.8234 71.8045 79.0978C71.6301 78.9427 71.4872 78.7529 71.3843 78.5396C71.2813 78.3262 71.2204 78.0936 71.2051 77.8554C71.1897 77.6172 71.2203 77.3782 71.2949 77.1524C71.3696 76.9267 71.4868 76.7187 71.6398 76.5408C71.7927 76.3629 71.9783 76.2186 72.1855 76.1164C72.3928 76.0142 72.6176 75.9561 72.8468 75.9457C73.0759 75.9352 73.3048 75.9725 73.5198 76.0554C73.7349 76.1382 73.932 76.265 74.0993 76.4283C75.3983 77.6378 76.3139 79.2293 76.7249 80.9923C77.1359 82.7553 77.023 84.6067 76.4011 86.3014C75.7793 87.9962 74.6777 89.4544 73.2422 90.4832C71.8067 91.512 70.105 92.0629 68.3622 92.063H65.4936V97.4378C65.4936 97.9129 65.3123 98.3686 64.9895 98.7046C64.6668 99.0406 64.229 99.2294 63.7725 99.2294C63.316 99.2294 62.8783 99.0406 62.5555 98.7046C62.2327 98.3686 62.0514 97.9129 62.0514 97.4378V92.063H54.5931C54.1367 92.063 53.6989 91.8742 53.3761 91.5382C53.0533 91.2022 52.872 90.7465 52.872 90.2714C52.872 89.7962 53.0533 89.3405 53.3761 89.0045C53.6989 88.6685 54.1367 88.4798 54.5931 88.4798H62.0514V63.3974H54.5931C53.2237 63.3974 51.9104 63.9637 50.9421 64.9717C49.9737 65.9796 49.4297 67.3467 49.4297 68.7722C49.4297 70.1977 49.9737 71.5648 50.9421 72.5728C51.9104 73.5807 53.2237 74.147 54.5931 74.147C55.0496 74.147 55.4874 74.3358 55.8102 74.6717C56.1329 75.0077 56.3143 75.4634 56.3143 75.9386C56.3143 76.4138 56.1329 76.8695 55.8102 77.2054C55.4874 77.5414 55.0496 77.7302 54.5931 77.7302C52.3108 77.7302 50.1219 76.7864 48.508 75.1065C46.8941 73.4265 45.9875 71.148 45.9875 68.7722C45.9875 66.3964 46.8941 64.1179 48.508 62.438C50.1219 60.758 52.3108 59.8142 54.5931 59.8142H62.0514V35.3291C62.0514 34.8539 62.2327 34.3982 62.5555 34.0622C62.8783 33.7262 63.316 33.5375 63.7725 33.5375C64.229 33.5375 64.6668 33.7262 64.9895 34.0622C65.3123 34.3982 65.4936 34.8539 65.4936 35.3291V59.8142H77.5416C78.521 59.8142 79.4908 59.6134 80.3957 59.2233C81.3006 58.8331 82.1228 58.2612 82.8153 57.5403C83.5079 56.8194 84.0573 55.9636 84.4321 55.0216C84.8069 54.0797 84.9998 53.0702 84.9998 52.0506V51.752C84.9998 49.7722 84.2443 47.8735 82.8994 46.4735C81.5545 45.0735 79.7304 44.2871 77.8284 44.2871H72.9519C72.4954 44.2871 72.0576 44.0983 71.7349 43.7623C71.4121 43.4263 71.2307 42.9706 71.2307 42.4955C71.2307 42.0203 71.4121 41.5646 71.7349 41.2286C72.0576 40.8926 72.4954 40.7039 72.9519 40.7039H77.8284C80.6433 40.7039 83.343 41.8679 85.3334 43.9398C87.3239 46.0117 88.4421 48.8219 88.4421 51.752ZM43.1189 56.231H36.2344C35.7779 56.231 35.3401 56.0423 35.0174 55.7063C34.6946 55.3703 34.5132 54.9146 34.5132 54.4394V52.0506C34.5132 49.0413 35.6617 46.1552 37.7059 44.0273C39.7502 41.8993 42.5228 40.7039 45.4138 40.7039H54.5931C55.0496 40.7039 55.4874 40.8926 55.8102 41.2286C56.1329 41.5646 56.3143 42.0203 56.3143 42.4955C56.3143 42.9706 56.1329 43.4263 55.8102 43.7623C55.4874 44.0983 55.0496 44.2871 54.5931 44.2871H54.0194V44.8843C54.0194 47.8936 52.871 50.7797 50.8267 52.9076C48.7825 55.0356 46.0099 56.231 43.1189 56.231ZM50.5772 44.2871H45.4138C43.4357 44.2871 41.5387 45.105 40.14 46.561C38.7413 48.0169 37.9555 49.9916 37.9555 52.0506V52.6478H43.1189C45.097 52.6478 46.994 51.8299 48.3927 50.3739C49.7914 48.918 50.5772 46.9433 50.5772 44.8843V44.2871Z" fill="#475536"/>
</svg>
