<svg width="132" height="138" viewBox="0 0 132 138" fill="none" xmlns="http://www.w3.org/2000/svg">
<ellipse cx="66.2969" cy="69.1964" rx="65.7031" ry="68.3951" fill="#F1FFE0"/>
<path d="M48.301 71.3652H36.8271C36.3706 71.3652 35.9329 71.1764 35.6101 70.8405C35.2873 70.5045 35.106 70.0488 35.106 69.5736C35.106 69.0984 35.2873 68.6427 35.6101 68.3067C35.9329 67.9708 36.3706 67.782 36.8271 67.782H47.3802L51.4563 61.4129C51.6133 61.1665 51.8264 60.9644 52.0767 60.8246C52.3269 60.6848 52.6065 60.6116 52.8905 60.6116C53.1746 60.6116 53.4542 60.6848 53.7044 60.8246C53.9547 60.9644 54.1678 61.1665 54.3248 61.4129L62.0697 73.5091L65.225 68.5793C65.3824 68.3336 65.5957 68.1323 65.846 67.9932C66.0962 67.8541 66.3755 67.7816 66.6592 67.782H73.5435C74 67.782 74.4378 67.9708 74.7605 68.3067C75.0833 68.6427 75.2646 69.0984 75.2646 69.5736C75.2646 70.0488 75.0833 70.5045 74.7605 70.8405C74.4378 71.1764 74 71.3652 73.5435 71.3652H67.58L63.5039 77.7343C63.3469 77.9807 63.1338 78.1828 62.8835 78.3226C62.6333 78.4624 62.3537 78.5356 62.0697 78.5356C61.7856 78.5356 61.506 78.4624 61.2558 78.3226C61.0055 78.1828 60.7924 77.9807 60.6354 77.7343L52.8905 65.638L49.7352 70.5679C49.5778 70.8136 49.3645 71.0149 49.1142 71.154C48.864 71.2931 48.5847 71.3656 48.301 71.3652ZM78.7068 41.5052C72.683 41.5052 67.4452 44.3329 64.3644 49.0717C61.2837 44.3329 56.0459 41.5052 50.0221 41.5052C45.4591 41.5107 41.0845 43.4001 37.858 46.7588C34.6315 50.1175 32.8165 54.6713 32.8112 59.4212C32.8112 59.6382 32.8112 59.8562 32.8112 60.0751C32.8257 60.5503 33.0209 61 33.3539 61.3254C33.5187 61.4865 33.7125 61.6122 33.924 61.6953C34.1356 61.7785 34.3608 61.8174 34.5868 61.81C34.8128 61.8025 35.0352 61.7488 35.2413 61.6519C35.4474 61.555 35.6331 61.4168 35.7878 61.2451C35.9426 61.0735 36.0634 60.8718 36.1432 60.6516C36.2231 60.4314 36.2606 60.1969 36.2534 59.9617C36.2534 59.7825 36.2534 59.6004 36.2534 59.4212C36.2572 55.6211 37.709 51.9778 40.2903 49.2907C42.8716 46.6037 46.3716 45.0923 50.0221 45.0884C55.8393 45.0884 60.7243 48.3222 62.7724 53.5298C62.9021 53.8584 63.1227 54.1395 63.4062 54.3373C63.6896 54.5351 64.0232 54.6407 64.3644 54.6407C64.7057 54.6407 65.0392 54.5351 65.3227 54.3373C65.6062 54.1395 65.8268 53.8584 65.9564 53.5298C68.0045 48.3222 72.8895 45.0884 78.7068 45.0884C82.3573 45.0923 85.8572 46.6037 88.4385 49.2907C91.0198 51.9778 92.4717 55.6211 92.4755 59.4212C92.4755 76.0622 69.0659 90.9683 64.3644 93.793C61.5419 92.103 52.0042 86.0832 44.8129 77.9195C44.6634 77.7348 44.4795 77.5836 44.2724 77.4748C44.0653 77.3661 43.8392 77.302 43.6077 77.2865C43.3762 77.271 43.144 77.3043 42.9252 77.3846C42.7064 77.4648 42.5055 77.5903 42.3344 77.7534C42.1634 77.9166 42.0258 78.114 41.9299 78.3339C41.8341 78.5538 41.7819 78.7917 41.7765 79.0331C41.7712 79.2745 41.8128 79.5146 41.8988 79.7388C41.9849 79.9631 42.1136 80.167 42.2772 80.3381C51.1523 90.4219 63.0478 97.1463 63.5498 97.427C63.8002 97.5671 64.0801 97.6404 64.3644 97.6404C64.6488 97.6404 64.9286 97.5671 65.1791 97.427C70.5832 94.2645 75.6804 90.5645 80.3992 86.3788C90.697 77.2148 95.9176 68.1403 95.9176 59.4212C95.9123 54.6713 94.0973 50.1175 90.8708 46.7588C87.6443 43.4001 83.2698 41.5107 78.7068 41.5052Z" fill="#343330"/>
</svg>
